<svg width="136" height="23" fill="none" xmlns="http://www.w3.org/2000/svg"><path d="M35.0344.293701l-.3016.68974L21.2427 16.7587h-6.368l.3976-10.57831-8.87 10.57831H0L.59636.983441l.294752-.68974H5.44264L4.71604 12.3266 14.7788.293701h5.1136L19.4262 12.2924 29.3587.293701h5.6757zM51.0951.293701L49.3472 4.26824h-3.4c-2.1112 0-3.9003.56682-5.3741 1.70728L35.7543 16.7518h-4.9491L38.2014.293701h4.154l-.3291 1.345329C43.5892.737593 45.3029.293701 47.1742.293701h3.9209z" fill="#DE2F46"/><path d="M74.1668.39502V16.7644h-3.6947l-.1302-1.7756c-1.5149 1.4-3.4754 2.1239-5.8745 2.1717-2.879 0-5.0656-.7239-6.5463-2.1717-1.4874-1.4478-2.2277-3.5716-2.2277-6.37837V.39502h3.9551v8.21541c0 1.59797.4456 2.82047 1.3367 3.66727s2.1798 1.2633 3.8729 1.2633c1.1653 0 2.2278-.2663 3.1806-.8058.9596-.5395 1.6794-1.2634 2.1592-2.1853V.39502h3.9689zM102.669 0c2.748 0 4.846.730714 6.299 2.18531 1.453 1.4546 2.18 3.55797 2.18 6.29644v8.28375h-3.962V8.48175c0-1.55704-.411-2.75213-1.234-3.59894-.823-.84681-1.988-1.26338-3.482-1.26338-1.186 0-2.262.27999-3.215.83998-.9597.55998-1.6863 1.31118-2.1935 2.2536.0685.54633.096 1.14046.096 1.77557v8.28372h-3.9621V8.48175c0-1.55704-.4044-2.75213-1.2201-3.59894-.8157-.84681-1.9673-1.26338-3.4616-1.26338-1.1653 0-2.2209.27316-3.1669.81949-.9459.54633-1.6588 1.28387-2.1455 2.19897V16.7586h-3.962V.396088h3.6946l.1303 1.741422C84.6271.710227 86.5738 0 88.9044 0c3.1874 0 5.4769 1.01754 6.8616 3.05944.8157-1.01071 1.8096-1.76874 2.9886-2.280922C99.9336.259506 101.236 0 102.669 0zM131.232 8.34517c0-1.46826-.514-2.62238-1.549-3.46919-1.035-.84681-2.454-1.26338-4.257-1.26338-1.186 0-2.269.19804-3.249.59413-.98.39609-1.741.92876-2.289 1.61167v5.4565c.548.7034 1.316 1.2565 2.31 1.6594.994.4029 2.07.6078 3.235.6078 1.823 0 3.249-.4234 4.271-1.2634 1.021-.8468 1.535-2.0077 1.535-3.5033v-.43023h-.007zM125.495 0c1.981 0 3.708.341455 5.196 1.01754 1.487.67608 2.625 1.64581 3.427 2.9092.802 1.25655 1.206 2.73164 1.206 4.41843v.43023c0 1.6868-.404 3.1619-1.206 4.4184-.802 1.2566-1.947 2.2331-3.427 2.9229-1.488.6897-3.215 1.038-5.196 1.038-2.201 0-4.072-.5805-5.607-1.7414v6.9315h-3.956V.396088h3.695l.096 1.509232C121.348.635107 123.274 0 125.495 0z" fill="#002051"/></svg>